<svg width="24" height="25" viewBox="0 0 24 25" fill="none" xmlns="http://www.w3.org/2000/svg">
<g clip-path="url(#clip0_159_263)">
<path d="M12 1.63037V5.38037H4.5V12.8804H0.75C0.75 19.1054 5.775 24.1304 12 24.1304C18.225 24.1304 23.25 19.1054 23.25 12.8804C23.25 6.65537 18.225 1.63037 12 1.63037Z" fill="#2A5F9E"/>
<path d="M12 1.63037C10.2375 1.63037 8.5875 2.04287 7.0875 2.75537V5.00537H4.125V7.96787H1.875C1.1625 9.46787 0.75 11.1179 0.75 12.8804H5.25V7.25537L9.75 12.8804H12V10.0679L8.85 6.13037H12V1.63037Z" fill="white"/>
<path d="M5.77499 6.13037L11.25 12.8804H12V11.0429L8.02499 6.13037H5.77499Z" fill="#ED4C5C"/>
<path d="M12 2.75537H7.0875C4.8375 3.84287 2.9625 5.71787 1.875 7.96787V12.8804H4.125V5.00537H12V2.75537Z" fill="#ED4C5C"/>
<path d="M3 14.2679L3.825 13.2554L3.5625 14.5679L4.875 14.6054L3.7125 15.2054L4.5 16.2554L3.3375 15.7304L3 17.0054L2.6625 15.7304L1.5 16.2554L2.2875 15.2054L1.125 14.6054L2.4375 14.5679L2.175 13.2554L3 14.2679ZM19.5 8.45537L20.175 7.63037L19.95 8.68037L21 8.71787L20.0625 9.20537L20.7 10.0304L19.7625 9.58037L19.5 10.6304L19.2375 9.58037L18.3 10.0304L18.9375 9.20537L18 8.71787L19.05 8.68037L18.825 7.63037L19.5 8.45537ZM19.5 15.9554L20.175 15.1304L19.95 16.1804L21 16.2179L20.0625 16.7054L20.7 17.5304L19.7625 17.0804L19.5 18.1304L19.2375 17.0804L18.3 17.5304L18.9375 16.7054L18 16.2179L19.05 16.1804L18.825 15.1304L19.5 15.9554ZM15.75 10.7054L16.425 9.88037L16.2 10.9304L17.25 10.9679L16.3125 11.4554L16.95 12.2804L16.0125 11.8304L15.75 12.8804L15.4875 11.8304L14.55 12.2804L15.1875 11.4554L14.25 10.9679L15.3 10.9304L15.075 9.88037L15.75 10.7054Z" fill="white"/>
</g>
<defs>
<clipPath id="clip0_159_263">
<rect width="24" height="24" fill="white" transform="translate(0 0.880371)"/>
</clipPath>
</defs>
</svg>
